<svg width="800" height="520" viewBox="0 0 800 520" fill="none" xmlns="http://www.w3.org/2000/svg">
  <rect width="800" height="520" rx="48" fill="url(#bg)"/>
  <circle cx="170" cy="110" r="78" fill="white" fill-opacity="0.18"/>
  <circle cx="660" cy="430" r="118" fill="#B6F7FF" fill-opacity="0.22"/>
  <rect x="192" y="140" width="150" height="220" rx="34" fill="white" fill-opacity="0.78"/>
  <rect x="458" y="112" width="120" height="248" rx="32" fill="white" fill-opacity="0.7"/>
  <path d="M224 203C224 192.507 232.507 184 243 184H291C301.493 184 310 192.507 310 203V222H224V203Z" fill="#49A6FF"/>
  <path d="M481 176C481 165.507 489.507 157 500 157H536C546.493 157 555 165.507 555 176V197H481V176Z" fill="#8567FF"/>
  <path d="M224 222H310V328C310 338.493 301.493 347 291 347H243C232.507 347 224 338.493 224 328V222Z" fill="url(#drink1)"/>
  <path d="M481 197H555V330C555 340.493 546.493 349 536 349H500C489.507 349 481 340.493 481 330V197Z" fill="url(#drink2)"/>
  <rect x="238" y="146" width="8" height="70" rx="4" transform="rotate(-25 238 146)" fill="#FFF4B8"/>
  <rect x="531" y="126" width="8" height="84" rx="4" transform="rotate(22 531 126)" fill="#FFF4B8"/>
  <defs>
    <linearGradient id="bg" x1="55" y1="48" x2="745" y2="472" gradientUnits="userSpaceOnUse">
      <stop stop-color="#CFE4FF"/>
      <stop offset="0.5" stop-color="#E7D6FF"/>
      <stop offset="1" stop-color="#FFF6D8"/>
    </linearGradient>
    <linearGradient id="drink1" x1="267" y1="222" x2="267" y2="347" gradientUnits="userSpaceOnUse">
      <stop stop-color="#6CD5FF"/>
      <stop offset="1" stop-color="#2B79F7"/>
    </linearGradient>
    <linearGradient id="drink2" x1="518" y1="197" x2="518" y2="349" gradientUnits="userSpaceOnUse">
      <stop stop-color="#FFD36D"/>
      <stop offset="1" stop-color="#FF8A42"/>
    </linearGradient>
  </defs>
</svg>
