<svg width="800" height="520" viewBox="0 0 800 520" fill="none" xmlns="http://www.w3.org/2000/svg">
  <rect width="800" height="520" rx="48" fill="url(#bg)"/>
  <circle cx="114" cy="120" r="62" fill="white" fill-opacity="0.16"/>
  <circle cx="685" cy="106" r="88" fill="#FFD7E6" fill-opacity="0.28"/>
  <path d="M165 365C165 313.638 206.638 272 258 272H540C591.362 272 633 313.638 633 365V388H165V365Z" fill="#FFFFFF" fill-opacity="0.72"/>
  <path d="M288 238L399 118L510 238" stroke="white" stroke-width="16" stroke-linecap="round"/>
  <circle cx="288" cy="238" r="34" fill="#FF87C7"/>
  <circle cx="399" cy="118" r="38" fill="#6F80FF"/>
  <circle cx="510" cy="238" r="34" fill="#6ED7FF"/>
  <rect x="237" y="282" width="44" height="92" rx="18" fill="#FF87C7"/>
  <rect x="378" y="252" width="44" height="122" rx="18" fill="#6F80FF"/>
  <rect x="519" y="296" width="44" height="78" rx="18" fill="#6ED7FF"/>
  <defs>
    <linearGradient id="bg" x1="66" y1="52" x2="727" y2="453" gradientUnits="userSpaceOnUse">
      <stop stop-color="#FFE5F4"/>
      <stop offset="0.52" stop-color="#E5DEFF"/>
      <stop offset="1" stop-color="#D9F1FF"/>
    </linearGradient>
  </defs>
</svg>
